# xmcd
#
# Track frame offsets: 
#        156
#        12436
#        23465
#        33556
#        46892
#        69427
#        87290
#        101491
#        123028
#        137578
#        153928
#
# Disc length: 2348 seconds
#
# Revision: 7
# Processed by: cddbd v1.5.2PL0 Copyright (c) Steve Scherf et al.
# Submitted via: ExactAudioCopyFreeDBPlugin 1.0
#
DISCID=7b092a0b
DTITLE=Various Artist - Blues Legends Disc 2
DYEAR=1996
DGENRE=Blues
TTITLE0=Lightning Hopkins - Talk Of The Town
TTITLE1=B.B. King - Catfish Blues
TTITLE2=John Lee Hooker - I'm Leaving
TTITLE3=Jimmy Reed - The Sun Is Shining
TTITLE4=Bukka White - Baby Please Don't Go
TTITLE5=T-Bone Walker - Afraid To Close My Eyes
TTITLE6=Memphis Slim - Slim's Blues
TTITLE7=John Mayhill - A Big Man
TTITLE8=Cissy Houston - Be My Baby
TTITLE9=Screaming Jay Hawkins - Ebb Tide
TTITLE10=Junior Wells - Hoodoo Man
EXTD=
EXTT0=
EXTT1=
EXTT2=
EXTT3=
EXTT4=
EXTT5=
EXTT6=
EXTT7=
EXTT8=
EXTT9=
EXTT10=
PLAYORDER=
